<svg width="662" height="900" viewBox="0 0 662 900" fill="none" xmlns="http://www.w3.org/2000/svg">
<path d="M18.2293 190.806C18.0795 189.598 17.9597 189.477 16.7313 189.296C17.9297 189.145 18.0495 189.024 18.2293 187.786C18.3791 188.994 18.499 189.114 19.7273 189.296C18.5289 189.447 18.4091 189.598 18.2293 190.806Z" fill="white" fill-opacity="0.1"/>
<path d="M31.4314 24.3301C31.2816 23.122 31.1618 23.0012 29.9334 22.8199C31.1318 22.6688 31.2517 22.548 31.4314 21.3097C31.5812 22.5179 31.7011 22.6386 32.9294 22.8199C31.731 22.9708 31.6112 23.122 31.4314 24.3301Z" fill="white" fill-opacity="0.1"/>
<path d="M116.145 129.383C115.995 128.174 115.875 128.054 114.647 127.872C115.845 127.721 115.965 127.6 116.145 126.362C116.295 127.57 116.415 127.691 117.643 127.872C116.445 128.023 116.325 128.174 116.145 129.383Z" fill="white" fill-opacity="0.1"/>
<path d="M207.079 38.7029C207.079 39.32 206.582 39.8205 205.97 39.8205C205.358 39.8205 204.862 39.32 204.862 38.7029C204.862 38.0856 205.358 37.5854 205.97 37.5854C206.582 37.5854 207.079 38.0856 207.079 38.7029Z" fill="white" fill-opacity="0.1"/>
<path d="M54.3465 89.2197C54.3465 89.8368 53.8501 90.3373 53.2378 90.3373C52.6258 90.3373 52.1293 89.8368 52.1293 89.2197C52.1293 88.6024 52.6258 88.1022 53.2378 88.1022C53.8501 88.1022 54.3465 88.6024 54.3465 89.2197Z" fill="white" fill-opacity="0.1"/>
<path d="M59.6548 192.583C59.6548 193.2 59.1586 193.7 58.5463 193.7C57.9343 193.7 57.4379 193.2 57.4379 192.583C57.4379 191.965 57.9343 191.465 58.5463 191.465C59.1586 191.465 59.6548 191.965 59.6548 192.583Z" fill="white" fill-opacity="0.1"/>
<path d="M74.9959 132.287C74.9959 132.904 74.4998 133.405 73.8875 133.405C73.2752 133.405 72.779 132.904 72.779 132.287C72.779 131.67 73.2752 131.17 73.8875 131.17C74.4998 131.17 74.9959 131.67 74.9959 132.287Z" fill="white" fill-opacity="0.1"/>
<path d="M273.881 22.1235C273.109 22.9019 271.857 22.9019 271.085 22.1235C270.313 21.3449 270.313 20.0827 271.085 19.3043C271.857 18.5257 273.109 18.5257 273.881 19.3043C274.653 20.0827 274.653 21.3449 273.881 22.1235Z" fill="white" fill-opacity="0.15"/>
<path d="M156.47 89.3797C156.47 89.9968 155.974 90.4972 155.362 90.4972C154.75 90.4972 154.253 89.9968 154.253 89.3797C154.253 88.7624 154.75 88.2622 155.362 88.2622C155.974 88.2622 156.47 88.7624 156.47 89.3797Z" fill="white" fill-opacity="0.15"/>
<path d="M94.5083 15.0826C94.3585 13.8744 94.2386 13.7536 93.0103 13.5723C94.2087 13.4212 94.3285 13.3004 94.5083 12.0621C94.6581 13.2703 94.7779 13.3911 96.0062 13.5723C94.8079 13.7232 94.688 13.8744 94.5083 15.0826Z" fill="white" fill-opacity="0.1"/>
<path d="M123.052 93.1308C122.902 91.9227 122.782 91.8019 121.554 91.6206C122.752 91.4695 122.872 91.3487 123.052 90.1104C123.201 91.3186 123.321 91.4393 124.55 91.6206C123.351 91.7715 123.231 91.9227 123.052 93.1308Z" fill="white" fill-opacity="0.1"/>
<path d="M441.322 395.39C441.472 396.598 441.592 396.719 442.82 396.9C441.621 397.051 441.502 397.172 441.322 398.41C441.172 397.202 441.052 397.082 439.824 396.9C441.022 396.749 441.142 396.598 441.322 395.39Z" fill="white" fill-opacity="0.1"/>
<path d="M524.202 151.605C524.352 152.813 524.471 152.933 525.7 153.115C524.501 153.266 524.382 153.387 524.202 154.625C524.052 153.417 523.932 153.296 522.704 153.115C523.902 152.964 524.022 152.813 524.202 151.605Z" fill="white" fill-opacity="0.1"/>
<path d="M511 318.08C511.149 319.289 511.269 319.409 512.498 319.591C511.299 319.742 511.179 319.862 511 321.101C510.85 319.893 510.73 319.772 509.502 319.591C510.7 319.44 510.82 319.289 511 318.08Z" fill="white" fill-opacity="0.1"/>
<path d="M426.286 213.028C426.436 214.236 426.556 214.357 427.784 214.538C426.586 214.689 426.466 214.81 426.286 216.048C426.136 214.84 426.016 214.719 424.788 214.538C425.986 214.387 426.106 214.236 426.286 213.028Z" fill="white" fill-opacity="0.1"/>
<path d="M549.214 397.293C549.214 396.676 549.71 396.175 550.323 396.175C550.935 396.175 551.431 396.676 551.431 397.293C551.431 397.91 550.935 398.41 550.323 398.41C549.71 398.41 549.214 397.91 549.214 397.293Z" fill="white" fill-opacity="0.1"/>
<path d="M335.352 303.708C335.352 303.09 335.849 302.59 336.461 302.59C337.073 302.59 337.569 303.09 337.569 303.708C337.569 304.325 337.073 304.825 336.461 304.825C335.849 304.825 335.352 304.325 335.352 303.708Z" fill="white" fill-opacity="0.1"/>
<path d="M488.085 253.191C488.085 252.574 488.581 252.073 489.193 252.073C489.805 252.073 490.302 252.574 490.302 253.191C490.302 253.808 489.805 254.308 489.193 254.308C488.581 254.308 488.085 253.808 488.085 253.191Z" fill="white" fill-opacity="0.1"/>
<path d="M482.776 149.828C482.776 149.211 483.272 148.71 483.885 148.71C484.497 148.71 484.993 149.211 484.993 149.828C484.993 150.445 484.497 150.945 483.885 150.945C483.272 150.945 482.776 150.445 482.776 149.828Z" fill="white" fill-opacity="0.1"/>
<path d="M467.435 210.123C467.435 209.506 467.931 209.006 468.544 209.006C469.156 209.006 469.652 209.506 469.652 210.123C469.652 210.741 469.156 211.241 468.544 211.241C467.931 211.241 467.435 210.741 467.435 210.123Z" fill="white" fill-opacity="0.1"/>
<path d="M262.546 385.346C263.545 384.9 264.713 385.355 265.155 386.362C265.597 387.369 265.145 388.546 264.147 388.992C263.148 389.437 261.981 388.983 261.538 387.976C261.096 386.969 261.548 385.792 262.546 385.346Z" fill="white" fill-opacity="0.15"/>
<path d="M415.395 368.674C415.395 367.573 416.28 366.681 417.372 366.681C418.464 366.681 419.349 367.573 419.349 368.674C419.349 369.775 418.464 370.668 417.372 370.668C416.28 370.668 415.395 369.775 415.395 368.674Z" fill="white" fill-opacity="0.15"/>
<path d="M268.55 320.287C269.322 319.509 270.574 319.509 271.346 320.287C272.119 321.066 272.119 322.328 271.346 323.106C270.574 323.885 269.322 323.885 268.55 323.106C267.778 322.328 267.778 321.066 268.55 320.287Z" fill="white" fill-opacity="0.15"/>
<path d="M293.546 369.55C293.546 368.933 294.042 368.433 294.654 368.433C295.267 368.433 295.763 368.933 295.763 369.55C295.763 370.168 295.267 370.668 294.654 370.668C294.042 370.668 293.546 370.168 293.546 369.55Z" fill="white" fill-opacity="0.15"/>
<path d="M385.961 253.031C385.961 252.414 386.457 251.913 387.069 251.913C387.681 251.913 388.178 252.414 388.178 253.031C388.178 253.648 387.681 254.148 387.069 254.148C386.457 254.148 385.961 253.648 385.961 253.031Z" fill="white" fill-opacity="0.15"/>
<path d="M447.923 327.328C448.073 328.536 448.192 328.657 449.421 328.838C448.222 328.989 448.103 329.11 447.923 330.348C447.773 329.14 447.653 329.019 446.425 328.838C447.623 328.687 447.743 328.536 447.923 327.328Z" fill="white" fill-opacity="0.1"/>
<path d="M343.467 375.417C343.617 376.625 343.737 376.746 344.965 376.927C343.767 377.078 343.647 377.199 343.467 378.437C343.318 377.229 343.198 377.108 341.969 376.927C343.168 376.776 343.288 376.625 343.467 375.417Z" fill="white" fill-opacity="0.1"/>
<path d="M419.38 249.28C419.529 250.488 419.649 250.609 420.878 250.79C419.679 250.941 419.559 251.062 419.38 252.3C419.23 251.092 419.11 250.971 417.882 250.79C419.08 250.639 419.2 250.488 419.38 249.28Z" fill="white" fill-opacity="0.1"/>
<path d="M486.49 364.319C486.64 365.528 486.76 365.648 487.988 365.83C486.79 365.981 486.67 366.102 486.49 367.34C486.341 366.132 486.221 366.011 484.992 365.83C486.191 365.679 486.311 365.528 486.49 364.319Z" fill="white" fill-opacity="0.1"/>
<path d="M577.577 598.202C577.726 596.994 577.846 596.873 579.074 596.692C577.876 596.541 577.756 596.42 577.577 595.181C577.427 596.39 577.307 596.51 576.079 596.692C577.277 596.843 577.397 596.994 577.577 598.202Z" fill="white" fill-opacity="0.1"/>
<path d="M660.502 740.362C660.652 739.154 660.772 739.033 662 738.852C660.802 738.7 660.682 738.58 660.502 737.341C660.352 738.55 660.232 738.67 659.004 738.852C660.202 739.003 660.322 739.154 660.502 740.362Z" fill="white" fill-opacity="0.1"/>
<path d="M565.089 732.025C565.239 730.816 565.359 730.696 566.587 730.514C565.389 730.363 565.269 730.243 565.089 729.004C564.939 730.212 564.819 730.333 563.591 730.514C564.789 730.665 564.909 730.816 565.089 732.025Z" fill="white" fill-opacity="0.1"/>
<path d="M401.673 640.139C401.823 638.931 401.943 638.81 403.171 638.629C401.973 638.478 401.853 638.357 401.673 637.119C401.523 638.327 401.404 638.448 400.175 638.629C401.374 638.78 401.493 638.931 401.673 640.139Z" fill="white" fill-opacity="0.1"/>
<path d="M489.624 544.196C489.774 542.988 489.893 542.867 491.122 542.686C489.923 542.534 489.804 542.414 489.624 541.175C489.474 542.383 489.354 542.504 488.126 542.686C489.324 542.836 489.444 542.988 489.624 544.196Z" fill="white" fill-opacity="0.1"/>
<path d="M508.667 590.203C508.667 590.82 509.164 591.32 509.776 591.32C510.388 591.32 510.884 590.82 510.884 590.203C510.884 589.585 510.388 589.085 509.776 589.085C509.164 589.085 508.667 589.585 508.667 590.203Z" fill="white" fill-opacity="0.1"/>
<path d="M344.003 698.068C344.003 698.685 344.499 699.185 345.111 699.185C345.723 699.185 346.219 698.685 346.219 698.068C346.219 697.45 345.723 696.95 345.111 696.95C344.499 696.95 344.003 697.45 344.003 698.068Z" fill="white" fill-opacity="0.1"/>
<path d="M598.51 622.607C598.51 623.224 599.007 623.725 599.619 623.725C600.231 623.725 600.727 623.224 600.727 622.607C600.727 621.99 600.231 621.49 599.619 621.49C599.007 621.49 598.51 621.99 598.51 622.607Z" fill="white" fill-opacity="0.1"/>
<path d="M389.145 540.118C389.145 540.735 389.642 541.235 390.254 541.235C390.866 541.235 391.362 540.735 391.362 540.118C391.362 539.5 390.866 539 390.254 539C389.642 539 389.145 539.5 389.145 540.118Z" fill="white" fill-opacity="0.1"/>
<path d="M624.914 665.886C624.914 666.503 625.411 667.003 626.023 667.003C626.635 667.003 627.132 666.503 627.132 665.886C627.132 665.269 626.635 664.768 626.023 664.768C625.411 664.768 624.914 665.269 624.914 665.886Z" fill="white" fill-opacity="0.1"/>
<path d="M590.424 755.133C590.424 755.751 590.921 756.251 591.533 756.251C592.145 756.251 592.641 755.751 592.641 755.133C592.641 754.516 592.145 754.016 591.533 754.016C590.921 754.016 590.424 754.516 590.424 755.133Z" fill="white" fill-opacity="0.1"/>
<path d="M570.578 646.651C570.578 647.268 571.074 647.769 571.686 647.769C572.299 647.769 572.795 647.268 572.795 646.651C572.795 646.034 572.299 645.534 571.686 645.534C571.074 645.534 570.578 646.034 570.578 646.651Z" fill="white" fill-opacity="0.1"/>
<path d="M586.119 690.136C587.117 690.582 588.285 690.127 588.727 689.12C589.17 688.114 588.718 686.936 587.72 686.49C586.721 686.045 585.553 686.5 585.111 687.506C584.669 688.513 585.12 689.69 586.119 690.136Z" fill="white" fill-opacity="0.15"/>
<path d="M440.675 684.59C440.675 685.691 441.56 686.584 442.652 686.584C443.744 686.584 444.63 685.691 444.63 684.59C444.63 683.489 443.744 682.597 442.652 682.597C441.56 682.597 440.675 683.489 440.675 684.59Z" fill="white" fill-opacity="0.15"/>
<path d="M506.246 651.624C507.019 652.402 508.271 652.402 509.043 651.624C509.815 650.845 509.815 649.583 509.043 648.805C508.271 648.026 507.019 648.026 506.246 648.805C505.474 649.583 505.474 650.845 506.246 651.624Z" fill="white" fill-opacity="0.15"/>
<path d="M577.546 548.997C577.546 549.614 578.042 550.114 578.654 550.114C579.266 550.114 579.763 549.614 579.763 548.997C579.763 548.38 579.266 547.879 578.654 547.879C578.042 547.879 577.546 548.38 577.546 548.997Z" fill="white" fill-opacity="0.15"/>
<path d="M456.221 580.068C456.221 580.685 456.717 581.186 457.329 581.186C457.941 581.186 458.438 580.685 458.438 580.068C458.438 579.451 457.941 578.951 457.329 578.951C456.717 578.951 456.221 579.451 456.221 580.068Z" fill="white" fill-opacity="0.15"/>
<path d="M444.742 754.061C444.892 752.852 445.012 752.732 446.24 752.55C445.042 752.399 444.922 752.278 444.742 751.04C444.593 752.248 444.473 752.369 443.244 752.55C444.443 752.701 444.563 752.852 444.742 754.061Z" fill="white" fill-opacity="0.1"/>
<path d="M357.969 611.148C358.119 609.94 358.239 609.819 359.467 609.638C358.269 609.487 358.149 609.366 357.969 608.128C357.819 609.336 357.7 609.456 356.471 609.638C357.67 609.789 357.789 609.94 357.969 611.148Z" fill="white" fill-opacity="0.1"/>
<path d="M302.809 663.768C302.959 662.56 303.078 662.439 304.307 662.258C303.108 662.107 302.989 661.986 302.809 660.747C302.659 661.956 302.539 662.076 301.311 662.258C302.509 662.409 302.629 662.56 302.809 663.768Z" fill="white" fill-opacity="0.1"/>
<path d="M387.862 775.957C388.012 777.165 388.132 777.286 389.36 777.467C388.162 777.618 388.042 777.739 387.862 778.977C387.712 777.769 387.593 777.648 386.364 777.467C387.563 777.316 387.682 777.165 387.862 775.957Z" fill="white" fill-opacity="0.1"/>
<path d="M292.449 784.294C292.599 785.502 292.719 785.623 293.947 785.804C292.749 785.956 292.629 786.076 292.449 787.315C292.299 786.106 292.179 785.986 290.951 785.804C292.15 785.654 292.269 785.502 292.449 784.294Z" fill="white" fill-opacity="0.1"/>
<path d="M94.8643 718C95.0141 719.208 95.1339 719.329 96.3623 719.51C95.1639 719.661 95.0441 719.782 94.8643 721.02C94.7145 719.812 94.5946 719.691 93.3663 719.51C94.5647 719.359 94.6845 719.208 94.8643 718Z" fill="white" fill-opacity="0.1"/>
<path d="M71.3628 818.251C71.3628 817.634 71.859 817.134 72.4713 817.134C73.0835 817.134 73.5797 817.634 73.5797 818.251C73.5797 818.869 73.0835 819.369 72.4713 819.369C71.859 819.369 71.3628 818.869 71.3628 818.251Z" fill="white" fill-opacity="0.1"/>
<path d="M325.87 893.712C325.87 893.095 326.367 892.594 326.979 892.594C327.591 892.594 328.088 893.095 328.088 893.712C328.088 894.329 327.591 894.829 326.979 894.829C326.367 894.829 325.87 894.329 325.87 893.712Z" fill="white" fill-opacity="0.1"/>
<path d="M352.275 850.433C352.275 849.816 352.771 849.315 353.383 849.315C353.995 849.315 354.492 849.816 354.492 850.433C354.492 851.05 353.995 851.55 353.383 851.55C352.771 851.55 352.275 851.05 352.275 850.433Z" fill="white" fill-opacity="0.1"/>
<path d="M317.785 761.185C317.785 760.568 318.281 760.068 318.893 760.068C319.505 760.068 320.002 760.568 320.002 761.185C320.002 761.803 319.505 762.303 318.893 762.303C318.281 762.303 317.785 761.803 317.785 761.185Z" fill="white" fill-opacity="0.1"/>
<path d="M297.938 869.668C297.938 869.05 298.434 868.55 299.046 868.55C299.659 868.55 300.155 869.05 300.155 869.668C300.155 870.285 299.659 870.785 299.046 870.785C298.434 870.785 297.938 870.285 297.938 869.668Z" fill="white" fill-opacity="0.1"/>
<path d="M313.479 826.183C314.478 825.737 315.646 826.192 316.088 827.199C316.53 828.205 316.078 829.383 315.08 829.828C314.081 830.274 312.913 829.819 312.471 828.812C312.029 827.806 312.481 826.629 313.479 826.183Z" fill="white" fill-opacity="0.15"/>
<path d="M168.035 831.728C168.035 830.627 168.92 829.735 170.012 829.735C171.105 829.735 171.99 830.627 171.99 831.728C171.99 832.829 171.105 833.722 170.012 833.722C168.92 833.722 168.035 832.829 168.035 831.728Z" fill="white" fill-opacity="0.15"/>
<path d="M233.607 864.695C234.379 863.917 235.631 863.917 236.403 864.695C237.175 865.474 237.175 866.736 236.403 867.514C235.631 868.293 234.379 868.293 233.607 867.514C232.834 866.736 232.834 865.474 233.607 864.695Z" fill="white" fill-opacity="0.15"/>
<path d="M172.103 762.258C172.252 763.466 172.372 763.587 173.601 763.769C172.402 763.92 172.282 764.04 172.103 765.279C171.953 764.071 171.833 763.95 170.605 763.769C171.803 763.618 171.923 763.466 172.103 762.258Z" fill="white" fill-opacity="0.1"/>
<path d="M32.1542 752.031C32.304 753.239 32.4239 753.36 33.6522 753.541C32.4538 753.692 32.334 753.813 32.1542 755.051C32.0044 753.843 31.8846 753.723 30.6563 753.541C31.8546 753.39 31.9745 753.239 32.1542 752.031Z" fill="white" fill-opacity="0.1"/>
</svg>
